<?xml version="1.0" encoding="UTF-8"?><svg xmlns="http://www.w3.org/2000/svg" xmlns:xlink="http://www.w3.org/1999/xlink" version="1.1" id="Layer_1" x="0px" y="0px" viewBox="0 0 24 24" xml:space="preserve"><path id="base_color_25_" fill="#F47920" d="M21 1H3a2 2 0 0 0-2 2v18a2 2 0 0 0 2 2h18a2 2 0 0 0 2-2V3a2 2 0 0 0-2-2z"/><g id="light_foil_15_" fill="#FFF"><path opacity="0.1" d="M21 1H3a2 2 0 0 0-2 2v18a2 2 0 0 0 2 2h18a2 2 0 0 0 2-2V3a2 2 0 0 0-2-2zm-5.818 9.525l-.353-.354a4.005 4.005 0 0 0-5.658 0l-.353.354L5.283 6.99l.353-.354C7.336 4.936 9.596 4 12 4s4.664.936 6.364 2.636l.353.354-3.535 3.535z"/><path opacity="0.8" d="M18.364 6.636C16.664 4.936 14.404 4 12 4s-4.664.936-6.364 2.636l-.353.354 3.535 3.535.353-.354c.235-.234.497-.422.77-.586h-.002L9 7.395 9.919 7l.937 2.187c1.364-.406 2.898-.09 3.973.984l.353.354 3.535-3.535-.353-.354z"/></g><metadata><rdf:RDF xmlns:rdf="http://www.w3.org/1999/02/22-rdf-syntax-ns#" xmlns:rdfs="http://www.w3.org/2000/01/rdf-schema#" xmlns:dc="http://purl.org/dc/elements/1.1/"><rdf:Description about="https://iconscout.com/legal#licenses" dc:title="weight,measure,counter,health" dc:description="weight,measure,counter,health" dc:publisher="Iconscout" dc:date="2017-10-16" dc:format="image/svg+xml" dc:language="en"><dc:creator><rdf:Bag><rdf:li>Those Icons</rdf:li></rdf:Bag></dc:creator></rdf:Description></rdf:RDF></metadata></svg>